<svg width="1726" height="1199" viewBox="0 0 1726 1199" fill="none" xmlns="http://www.w3.org/2000/svg">
<path d="M392.354 1097.04L126.564 0H498.518L626.518 555.672C628.023 561.193 629.279 567.97 630.282 576C631.788 583.531 633.295 591.813 634.8 600.848H637.813C638.816 591.813 640.072 583.531 641.577 576C643.584 567.97 645.341 561.193 646.846 555.672L775.6 0H1100.87L1242.42 555.672C1243.93 561.193 1245.18 567.718 1246.19 575.248C1247.69 582.275 1249.45 590.809 1251.46 600.848H1254.47C1255.98 590.809 1257.23 582.275 1258.24 575.248C1259.74 567.718 1261 561.193 1262 555.672L1378.71 0H1725.81L1460.78 1097.04H1086.56L942.754 554.166C941.748 549.648 940.243 543.373 938.236 535.341C936.731 527.311 935.223 518.777 933.718 509.741H930.705C929.702 518.777 928.197 527.311 926.188 535.341C924.682 542.872 923.177 549.147 921.672 554.166L777.859 1097.04H392.354Z" fill="#E8E8E8"/>
<path d="M643.776 601.511C644.758 592.674 645.979 584.612 647.433 577.315C649.419 569.372 651.153 562.685 652.635 557.25L652.666 557.138L652.692 557.026L780.369 6H1096.21L1236.61 557.153L1236.62 557.201L1236.63 557.25C1238.05 562.446 1239.26 568.696 1240.24 576.041L1240.27 576.276L1240.32 576.507C1241.82 583.497 1243.57 592.002 1245.58 602.025L1246.54 606.848H1251.46H1254.47H1259.64L1260.41 601.738C1261.9 591.769 1263.15 583.276 1264.15 576.263C1265.64 568.815 1266.89 562.335 1267.89 556.826L1383.58 6H1718.19L1456.05 1091.04H1091.18L948.584 552.746C947.57 548.196 946.073 541.96 944.1 534.06C942.614 526.124 941.125 517.689 939.637 508.755L938.801 503.741H933.718H930.705H925.335L924.742 509.079C923.765 517.873 922.305 526.14 920.367 533.885L920.332 534.024L920.304 534.165C918.82 541.587 917.357 547.665 915.925 552.443L915.897 552.536L915.872 552.63L773.242 1091.04H397.074L134.192 6H493.743L620.671 557.018L620.698 557.135L620.729 557.25C622.137 562.411 623.347 568.891 624.329 576.744L624.356 576.961L624.399 577.176C625.889 584.634 627.385 592.852 628.882 601.834L629.717 606.848H634.8H637.813H643.183L643.776 601.511Z" stroke="#163300" stroke-opacity="0.75" stroke-width="12"/>
<path d="M265.788 1198.2L0 101.164H371.952L499.952 656.836C501.459 662.357 502.713 669.134 503.718 677.164C505.224 684.695 506.729 692.977 508.236 702.012H511.247C512.25 692.977 513.506 684.695 515.011 677.164C517.02 669.134 518.777 662.357 520.282 656.836L649.036 101.164H974.306L1115.86 656.836C1117.36 662.357 1118.62 668.882 1119.62 676.412C1121.13 683.439 1122.89 691.973 1124.89 702.012H1127.91C1129.41 691.973 1130.67 683.439 1131.67 676.412C1133.18 668.882 1134.43 662.357 1135.44 656.836L1252.14 101.164H1599.25L1334.21 1198.2H960L816.188 655.328C815.184 650.812 813.679 644.537 811.67 636.505C810.165 628.475 808.659 619.941 807.152 610.905H804.141C803.138 619.941 801.631 628.475 799.624 636.505C798.118 644.036 796.611 650.309 795.106 655.328L651.293 1198.2H265.788Z" fill="#B8E600"/>
<path d="M519.198 702.896C520.172 694.126 521.382 686.138 522.818 678.919C524.8 671.004 526.527 664.347 528.001 658.94L528.041 658.791L528.076 658.641L655.394 109.164H968.088L1108.11 658.81L1108.12 658.875L1108.14 658.94C1109.53 664.028 1110.72 670.186 1111.69 677.469L1111.74 677.781L1111.8 678.088C1113.3 685.068 1115.05 693.564 1117.05 703.581L1118.33 710.012H1124.89H1127.91H1134.8L1135.82 703.199C1137.31 693.253 1138.56 684.772 1139.56 677.763C1141.04 670.341 1142.28 663.878 1143.29 658.378L1258.64 109.164H1589.08L1327.91 1190.2H966.157L823.962 653.434C822.946 648.875 821.453 642.652 819.489 634.796C818.009 626.893 816.528 618.491 815.043 609.589L813.928 602.905H807.152H804.141H796.981L796.19 610.022C795.223 618.735 793.775 626.914 791.862 634.565L791.816 634.75L791.779 634.937C790.303 642.321 788.852 648.332 787.443 653.031L787.406 653.155L787.372 653.28L645.136 1190.2H272.081L10.1697 109.164H365.585L492.156 658.631L492.192 658.788L492.234 658.942C493.61 663.982 494.804 670.36 495.78 678.158L495.816 678.447L495.873 678.732C497.359 686.164 498.849 694.361 500.345 703.329L501.46 710.012H508.236H511.247H518.407L519.198 702.896Z" stroke="#163300" stroke-opacity="0.5" stroke-width="16"/>
</svg>
